<svg width="272.9188232421875px" height="119.6px" xmlns="http://www.w3.org/2000/svg" viewBox="113.54058837890625 15.200000000000003 272.9188232421875 119.6" style="background: rgba(253, 253, 253, 0);" preserveAspectRatio="xMidYMid"><defs><linearGradient id="editing-shiny-gradient" x1="0.04322727117869957" x2="0.9567727288213004" y1="0.2966316784620999" y2="0.7033683215379001" gradientUnits="objectBoundingBox"><stop offset="0.0" stop-color="#fdfdfd"></stop><stop offset="0.5" stop-color="#fdfdfd"></stop><stop offset="1.0" stop-color="#fdfdfd"></stop></linearGradient><linearGradient id="editing-shiny-gradient2" x1="0" x2="0" y1="0" y2="1"><stop offset="0.2" stop-color="#fff" stop-opacity="0.8"></stop><stop offset="0.8" stop-color="#fff" stop-opacity="0"></stop></linearGradient><filter id="editing-shiny2" x="-100%" y="-100%" width="300%" height="300%"><feMorphology operator="erode" radius="2"></feMorphology></filter><filter id="editing-shiny" x="-100%" y="-100%" width="300%" height="300%"><feFlood flood-color="#fff" result="flood"></feFlood><feConvolveMatrix in="SourceGraphic" result="conv" order="8,8" divisor="1" kernelMatrix="0 0 0 0 0 0 0 0 0 0 0 1 1 0 0 0 0 0 0 1 1 0 0 0 0 0 1 0 0 1 0 0 0 0 1 0 0 1 0 0 0 1 0 0 0 0 1 0 0 1 1 0 0 1 1 0 0 0 0 1 1 0 0 0 "></feConvolveMatrix><feOffset dx="0" dy="4" in="conv" result="offset"></feOffset><feComposite operator="in" in="flood" in2="offset" result="comp"></feComposite><feGaussianBlur in="offset" stdDeviation="3" result="shadow"></feGaussianBlur><feColorMatrix in="shadow" type="matrix" values="0.7 0 0 0 0  0 0.7 0 0 0  0 0 0.7 0 0  0 0 0 0.3 0" result="dark-shadow"></feColorMatrix><feOffset dx="0" dy="4" in="dark-shadow" result="offset-shadow"></feOffset><feOffset dx="0" dy="2" in="conv" result="offset-2"></feOffset><feComposite operator="out" in="offset" in2="offset-2" result="edge-diff"></feComposite><feGaussianBlur in="edge-diff" stdDeviation="1" result="edge-blur"></feGaussianBlur><feColorMatrix in="edge-blur" result="edge-shadow" type="matrix" values="0 0 0 0 0  0 0 0 0 0  0 0 0 0 0  0 0 0 0.5 0"></feColorMatrix><feComposite operator="in" in="edge-shadow" in2="offset" result="edge-shadow-in"></feComposite><feOffset dx="0" dy="1" in="edge-shadow-in" result="edge-shadow-final"></feOffset><feMerge result="out"><feMergeNode in="offset-shadow"></feMergeNode><feMergeNode in="comp"></feMergeNode><feMergeNode in="edge-shadow-final"></feMergeNode><feMergeNode in="SourceGraphic"></feMergeNode></feMerge></filter></defs><g filter="url(#editing-shiny)"><g transform="translate(156.0200173854828, 93.03500366210938)"><path d="M2.99-4.14L2.99-23.60L2.99-23.60Q2.99-25.58 4.14-26.73L4.14-26.73L4.14-26.73Q5.29-27.88 7.27-27.88L7.27-27.88L22.45-27.88L22.45-27.88Q22.77-27.37 23.02-26.54L23.02-26.54L23.02-26.54Q23.28-25.71 23.28-24.79L23.28-24.79L23.28-24.79Q23.28-23.05 22.52-22.31L22.52-22.31L22.52-22.31Q21.76-21.57 20.52-21.57L20.52-21.57L10.81-21.57L10.81-17.30L21.16-17.30L21.16-17.30Q21.48-16.79 21.73-15.98L21.73-15.98L21.73-15.98Q21.99-15.18 21.99-14.26L21.99-14.26L21.99-14.26Q21.99-12.51 21.25-11.78L21.25-11.78L21.25-11.78Q20.52-11.04 19.27-11.04L19.27-11.04L10.81-11.04L10.81-6.21L22.63-6.21L22.63-6.21Q22.95-5.70 23.21-4.88L23.21-4.88L23.21-4.88Q23.46-4.05 23.46-3.13L23.46-3.13L23.46-3.13Q23.46-1.38 22.70-0.62L22.70-0.62L22.70-0.62Q21.94 0.14 20.70 0.14L20.70 0.14L7.27 0.14L7.27 0.14Q5.29 0.14 4.14-1.01L4.14-1.01L4.14-1.01Q2.99-2.16 2.99-4.14L2.99-4.14ZM32.52-11.50L26.36-18.72L26.36-18.72Q26.73-20.47 27.81-21.57L27.81-21.57L27.81-21.57Q28.89-22.68 30.50-22.68L30.50-22.68L30.50-22.68Q32.02-22.68 32.84-21.94L32.84-21.94L32.84-21.94Q33.67-21.21 34.68-19.87L34.68-19.87L37.63-16.01L42.55-22.68L42.55-22.68Q45.08-22.68 46.55-21.78L46.55-21.78L46.55-21.78Q48.02-20.88 48.02-19.37L48.02-19.37L48.02-19.37Q48.02-18.77 47.86-18.29L47.86-18.29L47.86-18.29Q47.70-17.80 47.38-17.30L47.38-17.30L47.38-17.30Q47.06-16.79 46.55-16.15L46.55-16.15L46.55-16.15Q46.05-15.50 45.36-14.63L45.36-14.63L42.32-11.22L48.35-3.27L48.35-3.27Q48.12-1.52 46.97-0.51L46.97-0.51L46.97-0.51Q45.82 0.51 44.21 0.51L44.21 0.51L44.21 0.51Q42.46 0.46 41.42-0.51L41.42-0.51L41.42-0.51Q40.39-1.47 39.42-2.85L39.42-2.85L36.94-6.39L32.25 0.37L32.25 0.37Q32.02 0.37 31.74 0.39L31.74 0.39L31.74 0.39Q31.46 0.41 31.28 0.41L31.28 0.41L31.28 0.41Q28.93 0.41 27.71-0.55L27.71-0.55L27.71-0.55Q26.50-1.52 26.50-2.94L26.50-2.94L26.50-2.94Q26.50-4.05 27.02-4.90L27.02-4.90L27.02-4.90Q27.55-5.75 28.84-7.22L28.84-7.22L32.52-11.50ZM61.23-4.97L61.23-4.97L61.23-4.97Q62.01-4.97 62.95-5.13L62.95-5.13L62.95-5.13Q63.89-5.29 64.35-5.57L64.35-5.57L64.35-9.25L61.04-8.97L61.04-8.97Q59.75-8.88 58.93-8.42L58.93-8.42L58.93-8.42Q58.10-7.96 58.10-7.04L58.10-7.04L58.10-7.04Q58.10-6.12 58.81-5.54L58.81-5.54L58.81-5.54Q59.52-4.97 61.23-4.97ZM60.86-23.05L60.86-23.05L60.86-23.05Q63.34-23.05 65.39-22.54L65.39-22.54L65.39-22.54Q67.44-22.03 68.88-21.00L68.88-21.00L68.88-21.00Q70.33-19.96 71.12-18.38L71.12-18.38L71.12-18.38Q71.90-16.79 71.90-14.63L71.90-14.63L71.90-4.32L71.90-4.32Q71.90-3.13 71.23-2.37L71.23-2.37L71.23-2.37Q70.56-1.61 69.64-1.06L69.64-1.06L69.64-1.06Q66.65 0.74 61.23 0.74L61.23 0.74L61.23 0.74Q58.79 0.74 56.83 0.28L56.83 0.28L56.83 0.28Q54.88-0.18 53.47-1.10L53.47-1.10L53.47-1.10Q52.07-2.02 51.31-3.45L51.31-3.45L51.31-3.45Q50.55-4.88 50.55-6.76L50.55-6.76L50.55-6.76Q50.55-9.94 52.44-11.64L52.44-11.64L52.44-11.64Q54.33-13.34 58.28-13.75L58.28-13.75L64.31-14.40L64.31-14.72L64.31-14.72Q64.31-16.05 63.13-16.63L63.13-16.63L63.13-16.63Q61.96-17.20 59.75-17.20L59.75-17.20L59.75-17.20Q58.01-17.20 56.35-16.84L56.35-16.84L56.35-16.84Q54.69-16.47 53.36-15.92L53.36-15.92L53.36-15.92Q52.76-16.33 52.35-17.18L52.35-17.18L52.35-17.18Q51.93-18.03 51.93-18.95L51.93-18.95L51.93-18.95Q51.93-20.15 52.51-20.86L52.51-20.86L52.51-20.86Q53.08-21.57 54.28-22.08L54.28-22.08L54.28-22.08Q55.61-22.59 57.43-22.82L57.43-22.82L57.43-22.82Q59.25-23.05 60.86-23.05ZM87.40-23.05L87.40-23.05L87.40-23.05Q89.29-23.05 91.10-22.52L91.10-22.52L91.10-22.52Q92.92-21.99 94.25-20.93L94.25-20.93L94.25-20.93Q95.63-21.85 97.36-22.45L97.36-22.45L97.36-22.45Q99.08-23.05 101.52-23.05L101.52-23.05L101.52-23.05Q103.27-23.05 104.95-22.59L104.95-22.59L104.95-22.59Q106.63-22.13 107.94-21.14L107.94-21.14L107.94-21.14Q109.25-20.15 110.03-18.52L110.03-18.52L110.03-18.52Q110.81-16.88 110.81-14.54L110.81-14.54L110.81-0.05L110.81-0.05Q110.35 0.09 109.36 0.23L109.36 0.23L109.36 0.23Q108.38 0.37 107.32 0.37L107.32 0.37L107.32 0.37Q106.31 0.37 105.50 0.23L105.50 0.23L105.50 0.23Q104.70 0.09 104.14-0.32L104.14-0.32L104.14-0.32Q103.59-0.74 103.29-1.45L103.29-1.45L103.29-1.45Q102.99-2.16 102.99-3.31L102.99-3.31L102.99-14.31L102.99-14.31Q102.99-15.69 102.21-16.31L102.21-16.31L102.21-16.31Q101.43-16.93 100.10-16.93L100.10-16.93L100.10-16.93Q99.45-16.93 98.72-16.63L98.72-16.63L98.72-16.63Q97.98-16.33 97.61-16.01L97.61-16.01L97.61-16.01Q97.66-15.82 97.66-15.66L97.66-15.66L97.66-15.66Q97.66-15.50 97.66-15.36L97.66-15.36L97.66-0.05L97.66-0.05Q97.15 0.09 96.16 0.23L96.16 0.23L96.16 0.23Q95.17 0.37 94.16 0.37L94.16 0.37L94.16 0.37Q93.15 0.37 92.34 0.23L92.34 0.23L92.34 0.23Q91.54 0.09 90.99-0.32L90.99-0.32L90.99-0.32Q90.44-0.74 90.14-1.45L90.14-1.45L90.14-1.45Q89.84-2.16 89.84-3.31L89.84-3.31L89.84-14.31L89.84-14.31Q89.84-15.69 88.99-16.31L88.99-16.31L88.99-16.31Q88.14-16.93 86.94-16.93L86.94-16.93L86.94-16.93Q86.11-16.93 85.51-16.68L85.51-16.68L85.51-16.68Q84.92-16.42 84.50-16.19L84.50-16.19L84.50-0.05L84.50-0.05Q84.04 0.09 83.05 0.23L83.05 0.23L83.05 0.23Q82.06 0.37 81.01 0.37L81.01 0.37L81.01 0.37Q79.99 0.37 79.19 0.23L79.19 0.23L79.19 0.23Q78.38 0.09 77.83-0.32L77.83-0.32L77.83-0.32Q77.28-0.74 76.98-1.45L76.98-1.45L76.98-1.45Q76.68-2.16 76.68-3.31L76.68-3.31L76.68-17.20L76.68-17.20Q76.68-18.45 77.21-19.18L77.21-19.18L77.21-19.18Q77.74-19.92 78.66-20.56L78.66-20.56L78.66-20.56Q80.22-21.67 82.55-22.36L82.55-22.36L82.55-22.36Q84.87-23.05 87.40-23.05ZM125.86-23.05L125.86-23.05L125.86-23.05Q128.62-23.05 130.98-22.33L130.98-22.33L130.98-22.33Q133.35-21.62 135.06-20.15L135.06-20.15L135.06-20.15Q136.76-18.68 137.72-16.45L137.72-16.45L137.72-16.45Q138.69-14.21 138.69-11.13L138.69-11.13L138.69-11.13Q138.69-8.19 137.86-5.98L137.86-5.98L137.86-5.98Q137.03-3.77 135.52-2.28L135.52-2.28L135.52-2.28Q134.00-0.78 131.86-0.05L131.86-0.05L131.86-0.05Q129.72 0.69 127.10 0.69L127.10 0.69L127.10 0.69Q125.12 0.69 123.42 0.09L123.42 0.09L123.42 7.73L123.42 7.73Q122.96 7.87 121.95 8.03L121.95 8.03L121.95 8.03Q120.93 8.19 119.88 8.19L119.88 8.19L119.88 8.19Q118.86 8.19 118.06 8.05L118.06 8.05L118.06 8.05Q117.25 7.91 116.70 7.50L116.70 7.50L116.70 7.50Q116.15 7.08 115.87 6.37L115.87 6.37L115.87 6.37Q115.60 5.66 115.60 4.51L115.60 4.51L115.60-17.57L115.60-17.57Q115.60-18.81 116.13-19.60L116.13-19.60L116.13-19.60Q116.66-20.38 117.58-21.02L117.58-21.02L117.58-21.02Q119.00-21.94 121.12-22.49L121.12-22.49L121.12-22.49Q123.23-23.05 125.86-23.05ZM125.95-5.47L125.95-5.47L125.95-5.47Q130.69-5.47 130.69-11.13L130.69-11.13L130.69-11.13Q130.69-14.08 129.51-15.50L129.51-15.50L129.51-15.50Q128.34-16.93 126.13-16.93L126.13-16.93L126.13-16.93Q125.26-16.93 124.57-16.72L124.57-16.72L124.57-16.72Q123.88-16.51 123.37-16.24L123.37-16.24L123.37-6.12L123.37-6.12Q123.92-5.84 124.57-5.66L124.57-5.66L124.57-5.66Q125.21-5.47 125.95-5.47ZM142.51-8.88L142.51-22.03L142.51-22.03Q142.97-22.17 143.96-22.31L143.96-22.31L143.96-22.31Q144.95-22.45 146.00-22.45L146.00-22.45L146.00-22.45Q147.02-22.45 147.82-22.31L147.82-22.31L147.82-22.31Q148.63-22.17 149.18-21.76L149.18-21.76L149.18-21.76Q149.73-21.34 150.03-20.63L150.03-20.63L150.03-20.63Q150.33-19.92 150.33-18.77L150.33-18.77L150.33-8.88L150.33-8.88Q150.33-6.99 151.25-6.19L151.25-6.19L151.25-6.19Q152.17-5.38 153.92-5.38L153.92-5.38L153.92-5.38Q154.97-5.38 155.64-5.57L155.64-5.57L155.64-5.57Q156.31-5.75 156.68-5.93L156.68-5.93L156.68-22.03L156.68-22.03Q157.14-22.17 158.13-22.31L158.13-22.31L158.13-22.31Q159.11-22.45 160.17-22.45L160.17-22.45L160.17-22.45Q161.18-22.45 161.99-22.31L161.99-22.31L161.99-22.31Q162.79-22.17 163.35-21.76L163.35-21.76L163.35-21.76Q163.90-21.34 164.20-20.63L164.20-20.63L164.20-20.63Q164.50-19.92 164.50-18.77L164.50-18.77L164.50-4.78L164.50-4.78Q164.50-2.48 162.56-1.33L162.56-1.33L162.56-1.33Q160.95-0.32 158.72 0.21L158.72 0.21L158.72 0.21Q156.49 0.74 153.87 0.74L153.87 0.74L153.87 0.74Q151.39 0.74 149.29 0.18L149.29 0.18L149.29 0.18Q147.20-0.37 145.68-1.52L145.68-1.52L145.68-1.52Q144.16-2.67 143.34-4.49L143.34-4.49L143.34-4.49Q142.51-6.30 142.51-8.88L142.51-8.88ZM177.10-15.73L177.10-0.05L177.10-0.05Q176.64 0.09 175.65 0.23L175.65 0.23L175.65 0.23Q174.66 0.37 173.60 0.37L173.60 0.37L173.60 0.37Q172.59 0.37 171.79 0.23L171.79 0.23L171.79 0.23Q170.98 0.09 170.43-0.32L170.43-0.32L170.43-0.32Q169.88-0.74 169.58-1.45L169.58-1.45L169.58-1.45Q169.28-2.16 169.28-3.31L169.28-3.31L169.28-17.11L169.28-17.11Q169.28-18.17 169.67-18.93L169.67-18.93L169.67-18.93Q170.06-19.69 170.80-20.29L170.80-20.29L170.80-20.29Q171.53-20.88 172.61-21.37L172.61-21.37L172.61-21.37Q173.70-21.85 174.94-22.22L174.94-22.22L174.94-22.22Q176.18-22.59 177.51-22.79L177.51-22.79L177.51-22.79Q178.85-23 180.18-23L180.18-23L180.18-23Q182.39-23 183.68-22.15L183.68-22.15L183.68-22.15Q184.97-21.30 184.97-19.37L184.97-19.37L184.97-19.37Q184.97-18.72 184.78-18.10L184.78-18.10L184.78-18.10Q184.60-17.48 184.32-16.97L184.32-16.97L184.32-16.97Q183.36-16.97 182.34-16.88L182.34-16.88L182.34-16.88Q181.33-16.79 180.37-16.61L180.37-16.61L180.37-16.61Q179.40-16.42 178.55-16.21L178.55-16.21L178.55-16.21Q177.70-16.01 177.10-15.73L177.10-15.73Z" fill="url(#editing-shiny-gradient)"></path></g></g><g filter="url(#editing-shiny2)"><g transform="translate(156.0200173854828, 93.03500366210938)"><path d="M2.99-4.14L2.99-23.60L2.99-23.60Q2.99-25.58 4.14-26.73L4.14-26.73L4.14-26.73Q5.29-27.88 7.27-27.88L7.27-27.88L22.45-27.88L22.45-27.88Q22.77-27.37 23.02-26.54L23.02-26.54L23.02-26.54Q23.28-25.71 23.28-24.79L23.28-24.79L23.28-24.79Q23.28-23.05 22.52-22.31L22.52-22.31L22.52-22.31Q21.76-21.57 20.52-21.57L20.52-21.57L10.81-21.57L10.81-17.30L21.16-17.30L21.16-17.30Q21.48-16.79 21.73-15.98L21.73-15.98L21.73-15.98Q21.99-15.18 21.99-14.26L21.99-14.26L21.99-14.26Q21.99-12.51 21.25-11.78L21.25-11.78L21.25-11.78Q20.52-11.04 19.27-11.04L19.27-11.04L10.81-11.04L10.81-6.21L22.63-6.21L22.63-6.21Q22.95-5.70 23.21-4.88L23.21-4.88L23.21-4.88Q23.46-4.05 23.46-3.13L23.46-3.13L23.46-3.13Q23.46-1.38 22.70-0.62L22.70-0.62L22.70-0.62Q21.94 0.14 20.70 0.14L20.70 0.14L7.27 0.14L7.27 0.14Q5.29 0.14 4.14-1.01L4.14-1.01L4.14-1.01Q2.99-2.16 2.99-4.14L2.99-4.14ZM32.52-11.50L26.36-18.72L26.36-18.72Q26.73-20.47 27.81-21.57L27.81-21.57L27.81-21.57Q28.89-22.68 30.50-22.68L30.50-22.68L30.50-22.68Q32.02-22.68 32.84-21.94L32.84-21.94L32.84-21.94Q33.67-21.21 34.68-19.87L34.68-19.87L37.63-16.01L42.55-22.68L42.55-22.68Q45.08-22.68 46.55-21.78L46.55-21.78L46.55-21.78Q48.02-20.88 48.02-19.37L48.02-19.37L48.02-19.37Q48.02-18.77 47.86-18.29L47.86-18.29L47.86-18.29Q47.70-17.80 47.38-17.30L47.38-17.30L47.38-17.30Q47.06-16.79 46.55-16.15L46.55-16.15L46.55-16.15Q46.05-15.50 45.36-14.63L45.36-14.63L42.32-11.22L48.35-3.27L48.35-3.27Q48.12-1.52 46.97-0.51L46.97-0.51L46.97-0.51Q45.82 0.51 44.21 0.51L44.21 0.51L44.21 0.51Q42.46 0.46 41.42-0.51L41.42-0.51L41.42-0.51Q40.39-1.47 39.42-2.85L39.42-2.85L36.94-6.39L32.25 0.37L32.25 0.37Q32.02 0.37 31.74 0.39L31.74 0.39L31.74 0.39Q31.46 0.41 31.28 0.41L31.28 0.41L31.28 0.41Q28.93 0.41 27.71-0.55L27.71-0.55L27.71-0.55Q26.50-1.52 26.50-2.94L26.50-2.94L26.50-2.94Q26.50-4.05 27.02-4.90L27.02-4.90L27.02-4.90Q27.55-5.75 28.84-7.22L28.84-7.22L32.52-11.50ZM61.23-4.97L61.23-4.97L61.23-4.97Q62.01-4.97 62.95-5.13L62.95-5.13L62.95-5.13Q63.89-5.29 64.35-5.57L64.35-5.57L64.35-9.25L61.04-8.97L61.04-8.97Q59.75-8.88 58.93-8.42L58.93-8.42L58.93-8.42Q58.10-7.96 58.10-7.04L58.10-7.04L58.10-7.04Q58.10-6.12 58.81-5.54L58.81-5.54L58.81-5.54Q59.52-4.97 61.23-4.97ZM60.86-23.05L60.86-23.05L60.86-23.05Q63.34-23.05 65.39-22.54L65.39-22.54L65.39-22.54Q67.44-22.03 68.88-21.00L68.88-21.00L68.88-21.00Q70.33-19.96 71.12-18.38L71.12-18.38L71.12-18.38Q71.90-16.79 71.90-14.63L71.90-14.63L71.90-4.32L71.90-4.32Q71.90-3.13 71.23-2.37L71.23-2.37L71.23-2.37Q70.56-1.61 69.64-1.06L69.64-1.06L69.64-1.06Q66.65 0.74 61.23 0.74L61.23 0.74L61.23 0.74Q58.79 0.74 56.83 0.28L56.83 0.28L56.83 0.28Q54.88-0.18 53.47-1.10L53.47-1.10L53.47-1.10Q52.07-2.02 51.31-3.45L51.31-3.45L51.31-3.45Q50.55-4.88 50.55-6.76L50.55-6.76L50.55-6.76Q50.55-9.94 52.44-11.64L52.44-11.64L52.44-11.64Q54.33-13.34 58.28-13.75L58.28-13.75L64.31-14.40L64.31-14.72L64.31-14.72Q64.31-16.05 63.13-16.63L63.13-16.63L63.13-16.63Q61.96-17.20 59.75-17.20L59.75-17.20L59.75-17.20Q58.01-17.20 56.35-16.84L56.35-16.84L56.35-16.84Q54.69-16.47 53.36-15.92L53.36-15.92L53.36-15.92Q52.76-16.33 52.35-17.18L52.35-17.18L52.35-17.18Q51.93-18.03 51.93-18.95L51.93-18.95L51.93-18.95Q51.93-20.15 52.51-20.86L52.51-20.86L52.51-20.86Q53.08-21.57 54.28-22.08L54.28-22.08L54.28-22.08Q55.61-22.59 57.43-22.82L57.43-22.82L57.43-22.82Q59.25-23.05 60.86-23.05ZM87.40-23.05L87.40-23.05L87.40-23.05Q89.29-23.05 91.10-22.52L91.10-22.52L91.10-22.52Q92.92-21.99 94.25-20.93L94.25-20.93L94.25-20.93Q95.63-21.85 97.36-22.45L97.36-22.45L97.36-22.45Q99.08-23.05 101.52-23.05L101.52-23.05L101.52-23.05Q103.27-23.05 104.95-22.59L104.95-22.59L104.95-22.59Q106.63-22.13 107.94-21.14L107.94-21.14L107.94-21.14Q109.25-20.15 110.03-18.52L110.03-18.52L110.03-18.52Q110.81-16.88 110.81-14.54L110.81-14.54L110.81-0.05L110.81-0.05Q110.35 0.09 109.36 0.23L109.36 0.23L109.36 0.23Q108.38 0.37 107.32 0.37L107.32 0.37L107.32 0.37Q106.31 0.37 105.50 0.23L105.50 0.23L105.50 0.23Q104.70 0.09 104.14-0.32L104.14-0.32L104.14-0.32Q103.59-0.74 103.29-1.45L103.29-1.45L103.29-1.45Q102.99-2.16 102.99-3.31L102.99-3.31L102.99-14.31L102.99-14.31Q102.99-15.69 102.21-16.31L102.21-16.31L102.21-16.31Q101.43-16.93 100.10-16.93L100.10-16.93L100.10-16.93Q99.45-16.93 98.72-16.63L98.72-16.63L98.72-16.63Q97.98-16.33 97.61-16.01L97.61-16.01L97.61-16.01Q97.66-15.82 97.66-15.66L97.66-15.66L97.66-15.66Q97.66-15.50 97.66-15.36L97.66-15.36L97.66-0.05L97.66-0.05Q97.15 0.09 96.16 0.23L96.16 0.23L96.16 0.23Q95.17 0.37 94.16 0.37L94.16 0.37L94.16 0.37Q93.15 0.37 92.34 0.23L92.34 0.23L92.34 0.23Q91.54 0.09 90.99-0.32L90.99-0.32L90.99-0.32Q90.44-0.74 90.14-1.45L90.14-1.45L90.14-1.45Q89.84-2.16 89.84-3.31L89.84-3.31L89.84-14.31L89.84-14.31Q89.84-15.69 88.99-16.31L88.99-16.31L88.99-16.31Q88.14-16.93 86.94-16.93L86.94-16.93L86.94-16.93Q86.11-16.93 85.51-16.68L85.51-16.68L85.51-16.68Q84.92-16.42 84.50-16.19L84.50-16.19L84.50-0.05L84.50-0.05Q84.04 0.09 83.05 0.23L83.05 0.23L83.05 0.23Q82.06 0.37 81.01 0.37L81.01 0.37L81.01 0.37Q79.99 0.37 79.19 0.23L79.19 0.23L79.19 0.23Q78.38 0.09 77.83-0.32L77.83-0.32L77.83-0.32Q77.28-0.74 76.98-1.45L76.98-1.45L76.98-1.45Q76.68-2.16 76.68-3.31L76.68-3.31L76.68-17.20L76.68-17.20Q76.68-18.45 77.21-19.18L77.21-19.18L77.21-19.18Q77.74-19.92 78.66-20.56L78.66-20.56L78.66-20.56Q80.22-21.67 82.55-22.36L82.55-22.36L82.55-22.36Q84.87-23.05 87.40-23.05ZM125.86-23.05L125.86-23.05L125.86-23.05Q128.62-23.05 130.98-22.33L130.98-22.33L130.98-22.33Q133.35-21.62 135.06-20.15L135.06-20.15L135.06-20.15Q136.76-18.68 137.72-16.45L137.72-16.45L137.72-16.45Q138.69-14.21 138.69-11.13L138.69-11.13L138.69-11.13Q138.69-8.19 137.86-5.98L137.86-5.98L137.86-5.98Q137.03-3.77 135.52-2.28L135.52-2.28L135.52-2.28Q134.00-0.78 131.86-0.05L131.86-0.05L131.86-0.05Q129.72 0.69 127.10 0.69L127.10 0.69L127.10 0.69Q125.12 0.69 123.42 0.09L123.42 0.09L123.42 7.73L123.42 7.73Q122.96 7.87 121.95 8.03L121.95 8.03L121.95 8.03Q120.93 8.19 119.88 8.19L119.88 8.19L119.88 8.19Q118.86 8.19 118.06 8.05L118.06 8.05L118.06 8.05Q117.25 7.91 116.70 7.50L116.70 7.50L116.70 7.50Q116.15 7.08 115.87 6.37L115.87 6.37L115.87 6.37Q115.60 5.66 115.60 4.51L115.60 4.51L115.60-17.57L115.60-17.57Q115.60-18.81 116.13-19.60L116.13-19.60L116.13-19.60Q116.66-20.38 117.58-21.02L117.58-21.02L117.58-21.02Q119.00-21.94 121.12-22.49L121.12-22.49L121.12-22.49Q123.23-23.05 125.86-23.05ZM125.95-5.47L125.95-5.47L125.95-5.47Q130.69-5.47 130.69-11.13L130.69-11.13L130.69-11.13Q130.69-14.08 129.51-15.50L129.51-15.50L129.51-15.50Q128.34-16.93 126.13-16.93L126.13-16.93L126.13-16.93Q125.26-16.93 124.57-16.72L124.57-16.72L124.57-16.72Q123.88-16.51 123.37-16.24L123.37-16.24L123.37-6.12L123.37-6.12Q123.92-5.84 124.57-5.66L124.57-5.66L124.57-5.66Q125.21-5.47 125.95-5.47ZM142.51-8.88L142.51-22.03L142.51-22.03Q142.97-22.17 143.96-22.31L143.96-22.31L143.96-22.31Q144.95-22.45 146.00-22.45L146.00-22.45L146.00-22.45Q147.02-22.45 147.82-22.31L147.82-22.31L147.82-22.31Q148.63-22.17 149.18-21.76L149.18-21.76L149.18-21.76Q149.73-21.34 150.03-20.63L150.03-20.63L150.03-20.63Q150.33-19.92 150.33-18.77L150.33-18.77L150.33-8.88L150.33-8.88Q150.33-6.99 151.25-6.19L151.25-6.19L151.25-6.19Q152.17-5.38 153.92-5.38L153.92-5.38L153.92-5.38Q154.97-5.38 155.64-5.57L155.64-5.57L155.64-5.57Q156.31-5.75 156.68-5.93L156.68-5.93L156.68-22.03L156.68-22.03Q157.14-22.17 158.13-22.31L158.13-22.31L158.13-22.31Q159.11-22.45 160.17-22.45L160.17-22.45L160.17-22.45Q161.18-22.45 161.99-22.31L161.99-22.31L161.99-22.31Q162.79-22.17 163.35-21.76L163.35-21.76L163.35-21.76Q163.90-21.34 164.20-20.63L164.20-20.63L164.20-20.63Q164.50-19.92 164.50-18.77L164.50-18.77L164.50-4.78L164.50-4.78Q164.50-2.48 162.56-1.33L162.56-1.33L162.56-1.33Q160.95-0.32 158.72 0.21L158.72 0.21L158.72 0.21Q156.49 0.74 153.87 0.74L153.87 0.74L153.87 0.74Q151.39 0.74 149.29 0.18L149.29 0.18L149.29 0.18Q147.20-0.37 145.68-1.52L145.68-1.52L145.68-1.52Q144.16-2.67 143.34-4.49L143.34-4.49L143.34-4.49Q142.51-6.30 142.51-8.88L142.51-8.88ZM177.10-15.73L177.10-0.05L177.10-0.05Q176.64 0.09 175.65 0.23L175.65 0.23L175.65 0.23Q174.66 0.37 173.60 0.37L173.60 0.37L173.60 0.37Q172.59 0.37 171.79 0.23L171.79 0.23L171.79 0.23Q170.98 0.09 170.43-0.32L170.43-0.32L170.43-0.32Q169.88-0.74 169.58-1.45L169.58-1.45L169.58-1.45Q169.28-2.16 169.28-3.31L169.28-3.31L169.28-17.11L169.28-17.11Q169.28-18.17 169.67-18.93L169.67-18.93L169.67-18.93Q170.06-19.69 170.80-20.29L170.80-20.29L170.80-20.29Q171.53-20.88 172.61-21.37L172.61-21.37L172.61-21.37Q173.70-21.85 174.94-22.22L174.94-22.22L174.94-22.22Q176.18-22.59 177.51-22.79L177.51-22.79L177.51-22.79Q178.85-23 180.18-23L180.18-23L180.18-23Q182.39-23 183.68-22.15L183.68-22.15L183.68-22.15Q184.97-21.30 184.97-19.37L184.97-19.37L184.97-19.37Q184.97-18.72 184.78-18.10L184.78-18.10L184.78-18.10Q184.60-17.48 184.32-16.97L184.32-16.97L184.32-16.97Q183.36-16.97 182.34-16.88L182.34-16.88L182.34-16.88Q181.33-16.79 180.37-16.61L180.37-16.61L180.37-16.61Q179.40-16.42 178.55-16.21L178.55-16.21L178.55-16.21Q177.70-16.01 177.10-15.73L177.10-15.73Z" fill="url(#editing-shiny-gradient2)"></path></g></g><style>text {
  font-size: 64px;
  font-family: Arial Black;
  dominant-baseline: central;
  text-anchor: middle;
}</style></svg>